<svg version="1.1" viewBox="0.0 0.0 278.62992125984255 301.0761154855643" fill="none" stroke="none" stroke-linecap="square" stroke-miterlimit="10" xmlns:xlink="http://www.w3.org/1999/xlink" xmlns="http://www.w3.org/2000/svg"><clipPath id="p.0"><path d="m0 0l278.6299 0l0 301.0761l-278.6299 0l0 -301.0761z" clip-rule="nonzero"/></clipPath><g clip-path="url(#p.0)"><path fill="#000000" fill-opacity="0.0" d="m0 0l278.6299 0l0 301.0761l-278.6299 0z" fill-rule="evenodd"/><path fill="#000000" fill-opacity="0.0" d="m2.593176 58.80315c0 59.94488 2.96063 89.91733 5.92126 119.88977c2.9606295 29.972443 5.92126 59.944885 5.92126 119.889755" fill-rule="evenodd"/><path stroke="#ffffff" stroke-width="4.0" stroke-linejoin="round" stroke-linecap="butt" d="m2.593176 58.80315c0 59.94488 2.96063 89.91733 5.92126 119.88977c2.9606295 29.972443 5.92126 59.944885 5.92126 119.889755" fill-rule="evenodd"/><path fill="#000000" fill-opacity="0.0" d="m275.5538 53.401573c0 60.70079 -3.7480164 91.051186 -7.496063 121.40157c-3.7480164 30.350403 -7.496063 60.70079 -7.496063 121.401566" fill-rule="evenodd"/><path stroke="#ffffff" stroke-width="4.0" stroke-linejoin="round" stroke-linecap="butt" d="m275.5538 53.401573c0 60.70079 -3.7480164 91.051186 -7.496063 121.40157c-3.7480164 30.350403 -7.496063 60.70079 -7.496063 121.401566" fill-rule="evenodd"/><path fill="#000000" fill-opacity="0.0" d="m2.136483 60.46982c20.551182 0 30.82677 6.3779526 41.102364 12.755905c10.275589 6.3779526 20.551182 12.755905 41.102364 12.755905" fill-rule="evenodd"/><path stroke="#ffffff" stroke-width="4.0" stroke-linejoin="round" stroke-linecap="butt" d="m2.136483 60.46982c20.551182 0 30.82677 6.3779526 41.102364 12.755905c10.275589 6.3779526 20.551182 12.755905 41.102364 12.755905" fill-rule="evenodd"/><path fill="#000000" fill-opacity="0.0" d="m84.34121 85.98163c15.354332 0 23.031494 -6.1417313 30.708656 -12.283463c7.67717 -6.141739 15.35434 -12.283466 30.708664 -12.283466" fill-rule="evenodd"/><path stroke="#ffffff" stroke-width="4.0" stroke-linejoin="round" stroke-linecap="butt" d="m84.34121 85.98163c15.354332 0 23.031494 -6.1417313 30.708656 -12.283463c7.67717 -6.141739 15.35434 -12.283466 30.708664 -12.283466" fill-rule="evenodd"/><path fill="#000000" fill-opacity="0.0" d="m144.1811 61.4147c15.944885 0 23.917313 6.968502 31.889755 13.937008c7.9724426 6.968506 15.944885 13.937004 31.88977 13.937004" fill-rule="evenodd"/><path stroke="#ffffff" stroke-width="4.0" stroke-linejoin="round" stroke-linecap="butt" d="m144.1811 61.4147c15.944885 0 23.917313 6.968502 31.889755 13.937008c7.9724426 6.968506 15.944885 13.937004 31.88977 13.937004" fill-rule="evenodd"/><path fill="#000000" fill-opacity="0.0" d="m207.96063 89.28871c16.653534 0 24.980316 -8.385826 33.307083 -16.771652c8.326767 -8.385826 16.65355 -16.771652 33.307083 -16.771652" fill-rule="evenodd"/><path stroke="#ffffff" stroke-width="4.0" stroke-linejoin="round" stroke-linecap="butt" d="m207.96063 89.28871c16.653534 0 24.980316 -8.385826 33.307083 -16.771652c8.326767 -8.385826 16.65355 -16.771652 33.307083 -16.771652" fill-rule="evenodd"/><path fill="#000000" fill-opacity="0.0" d="m13.246719 297.1496l249.32283 -0.47244263" fill-rule="evenodd"/><path stroke="#ffffff" stroke-width="4.0" stroke-linejoin="round" stroke-linecap="butt" d="m13.246719 297.1496l249.32283 -0.47244263" fill-rule="evenodd"/><path fill="#000000" fill-opacity="0.0" d="m24.829496 62.83108c-3.529808 -10.589424 0.5190315 -25.428646 9.44882 -32.125984c4.597992 -3.448494 11.555325 1.0171299 17.007874 2.8346462c6.8788414 2.2929497 14.999958 -3.6378117 21.73228 -0.94488144c15.834679 6.33387 11.406517 35.76964 3.7795258 51.023624" fill-rule="evenodd"/><path stroke="#ffffff" stroke-width="4.0" stroke-linejoin="round" stroke-linecap="butt" d="m24.829496 62.83108c-3.529808 -10.589424 0.5190315 -25.428646 9.44882 -32.125984c4.597992 -3.448494 11.555325 1.0171299 17.007874 2.8346462c6.8788414 2.2929497 14.999958 -3.6378117 21.73228 -0.94488144c15.834679 6.33387 11.406517 35.76964 3.7795258 51.023624" fill-rule="evenodd"/><path fill="#000000" fill-opacity="0.0" d="m56.95483 33.540684c1.2805138 -5.1220646 0.55529404 -15.118111 -4.724411 -15.118111c-4.5858955 0 3.7795296 8.64245 3.7795296 13.228346" fill-rule="evenodd"/><path stroke="#ffffff" stroke-width="4.0" stroke-linejoin="round" stroke-linecap="butt" d="m56.95483 33.540684c1.2805138 -5.1220646 0.55529404 -15.118111 -4.724411 -15.118111c-4.5858955 0 3.7795296 8.64245 3.7795296 13.228346" fill-rule="evenodd"/><path fill="#000000" fill-opacity="0.0" d="m187.34908 84.56423c4.263275 -29.842884 12.0143585 -74.40287 41.574814 -80.314964c19.84549 -3.9691002 30.783234 38.591034 21.732285 56.692917" fill-rule="evenodd"/><path stroke="#ffffff" stroke-width="4.0" stroke-linejoin="round" stroke-linecap="butt" d="m187.34908 84.56423c4.263275 -29.842884 12.0143585 -74.40287 41.574814 -80.314964c19.84549 -3.9691002 30.783234 38.591034 21.732285 56.692917" fill-rule="evenodd"/><path fill="#000000" fill-opacity="0.0" d="m210.97113 40.154854c3.1274872 -9.382442 20.44548 -0.30147934 29.291336 -4.724407" fill-rule="evenodd"/><path stroke="#ffffff" stroke-width="4.0" stroke-linejoin="round" stroke-linecap="butt" d="m210.97113 40.154854c3.1274872 -9.382442 20.44548 -0.30147934 29.291336 -4.724407" fill-rule="evenodd"/><path fill="#000000" fill-opacity="0.0" d="m207.1916 66.61155c8.89505 -4.447529 20.39627 -1.2217636 29.291336 -5.6692924" fill-rule="evenodd"/><path stroke="#ffffff" stroke-width="4.0" stroke-linejoin="round" stroke-linecap="butt" d="m207.1916 66.61155c8.89505 -4.447529 20.39627 -1.2217636 29.291336 -5.6692924" fill-rule="evenodd"/><path fill="#000000" fill-opacity="0.0" d="m174.11285 74.1706l0 -33.07086" fill-rule="evenodd"/><path stroke="#ffffff" stroke-width="4.0" stroke-linejoin="round" stroke-linecap="butt" d="m174.11285 74.1706l0 -33.07086" fill-rule="evenodd"/><path fill="#000000" fill-opacity="0.0" d="m174.11285 41.09974l-70.866135 0.4724388" fill-rule="evenodd"/><path stroke="#ffffff" stroke-width="4.0" stroke-linejoin="round" stroke-linecap="butt" d="m174.11285 41.09974l-70.866135 0.4724388" fill-rule="evenodd"/><path fill="#000000" fill-opacity="0.0" d="m102.77428 41.572178l-0.724411 40.157482" fill-rule="evenodd"/><path stroke="#ffffff" stroke-width="4.0" stroke-linejoin="round" stroke-linecap="butt" d="m102.77428 41.572178l-0.724411 40.157482" fill-rule="evenodd"/><path fill="#000000" fill-opacity="0.0" d="m103.24672 42.04462l-25.039368 -12.755907" fill-rule="evenodd"/><path stroke="#ffffff" stroke-width="4.0" stroke-linejoin="round" stroke-linecap="butt" d="m103.24672 42.04462l-25.039368 -12.755907" fill-rule="evenodd"/><path fill="#000000" fill-opacity="0.0" d="m78.438324 27.39895l-0.22047424 9.228346" fill-rule="evenodd"/><path stroke="#ffffff" stroke-width="4.0" stroke-linejoin="round" stroke-linecap="butt" d="m78.438324 27.39895l-0.22047424 9.228346" fill-rule="evenodd"/><path fill="#000000" fill-opacity="0.0" d="m103.00525 42.280838l-7.7795258 -21.73228" fill-rule="evenodd"/><path stroke="#ffffff" stroke-width="4.0" stroke-linejoin="round" stroke-linecap="butt" d="m103.00525 42.280838l-7.7795258 -21.73228" fill-rule="evenodd"/><path fill="#000000" fill-opacity="0.0" d="m95.215225 21.257217l-17.732285 8.503937" fill-rule="evenodd"/><path stroke="#ffffff" stroke-width="4.0" stroke-linejoin="round" stroke-linecap="butt" d="m95.215225 21.257217l-17.732285 8.503937" fill-rule="evenodd"/><path fill="#000000" fill-opacity="0.0" d="m174.58005 41.8084l-13.228348 -21.984253" fill-rule="evenodd"/><path stroke="#ffffff" stroke-width="4.0" stroke-linejoin="round" stroke-linecap="butt" d="m174.58005 41.8084l-13.228348 -21.984253" fill-rule="evenodd"/><path fill="#000000" fill-opacity="0.0" d="m161.35695 19.839895l-66.14172 0.94488144" fill-rule="evenodd"/><path stroke="#ffffff" stroke-width="4.0" stroke-linejoin="round" stroke-linecap="butt" d="m161.35695 19.839895l-66.14172 0.94488144" fill-rule="evenodd"/><path fill="#000000" fill-opacity="0.0" d="m95.215225 20.784777l0.22046661 -10.866141" fill-rule="evenodd"/><path stroke="#ffffff" stroke-width="4.0" stroke-linejoin="round" stroke-linecap="butt" d="m95.215225 20.784777l0.22046661 -10.866141" fill-rule="evenodd"/><path fill="#000000" fill-opacity="0.0" d="m94.85302 11.3359585l66.86614 -0.72441006" fill-rule="evenodd"/><path stroke="#ffffff" stroke-width="4.0" stroke-linejoin="round" stroke-linecap="butt" d="m94.85302 11.3359585l66.86614 -0.72441006" fill-rule="evenodd"/><path fill="#000000" fill-opacity="0.0" d="m161.3517 9.209973l0.0315094 10.677165" fill-rule="evenodd"/><path stroke="#ffffff" stroke-width="4.0" stroke-linejoin="round" stroke-linecap="butt" d="m161.3517 9.209973l0.0315094 10.677165" fill-rule="evenodd"/><path fill="#000000" fill-opacity="0.0" d="m127.50656 30.942257l0 0c0 -2.4178772 3.5958252 -4.3779526 8.031494 -4.3779526l0 0c4.435669 0 8.031494 1.9600754 8.031494 4.3779526l0 0c0 2.4178772 -3.5958252 4.3779526 -8.031494 4.3779526l0 0c-4.435669 0 -8.031494 -1.9600754 -8.031494 -4.3779526z" fill-rule="evenodd"/><path stroke="#ffffff" stroke-width="4.0" stroke-linejoin="round" stroke-linecap="butt" d="m127.50656 30.942257l0 0c0 -2.4178772 3.5958252 -4.3779526 8.031494 -4.3779526l0 0c4.435669 0 8.031494 1.9600754 8.031494 4.3779526l0 0c0 2.4178772 -3.5958252 4.3779526 -8.031494 4.3779526l0 0c-4.435669 0 -8.031494 -1.9600754 -8.031494 -4.3779526z" fill-rule="evenodd"/><path fill="#000000" fill-opacity="0.0" d="m250.87927 60.706036c-0.3543396 0.94488144 -0.3543396 0.94488144 -0.70866394 1.8897667" fill-rule="evenodd"/><path stroke="#ffffff" stroke-width="4.0" stroke-linejoin="round" stroke-linecap="butt" d="m250.87927 60.706036c-0.3543396 0.94488144 -0.3543396 0.94488144 -0.70866394 1.8897667" fill-rule="evenodd"/><path fill="#000000" fill-opacity="0.0" d="m250.64305 61.17848c-0.23622131 1.0629921 -0.23622131 1.0629921 -0.47244263 2.1259842" fill-rule="evenodd"/><path stroke="#ffffff" stroke-width="4.0" stroke-linejoin="round" stroke-linecap="butt" d="m250.64305 61.17848c-0.23622131 1.0629921 -0.23622131 1.0629921 -0.47244263 2.1259842" fill-rule="evenodd"/><path fill="#000000" fill-opacity="0.0" d="m76.78476 81.72966c-0.24146271 1.3385849 -0.48292542 2.6771622 -0.72439575 4.015747" fill-rule="evenodd"/><path stroke="#ffffff" stroke-width="4.0" stroke-linejoin="round" stroke-linecap="butt" d="m76.78476 81.72966c-0.24146271 1.3385849 -0.48292542 2.6771622 -0.72439575 4.015747" fill-rule="evenodd"/><path fill="#000000" fill-opacity="0.0" d="m22.931759 172.43832l272.12598 0l0 104.22046l-272.12598 0z" fill-rule="evenodd"/><path fill="#ffffff" d="m50.072384 180.92894q5.421875 0 9.421875 3.140625q4.015625 3.125 4.624996 8.625l-6.984371 0q-0.71875 -2.8125 -2.5625 -4.203125q-1.84375 -1.40625 -4.484375 -1.40625q-4.34375 0 -6.703125 3.15625q-2.359375 3.15625 -2.359375 8.28125q0 4.84375 2.328125 8.0q2.34375 3.140625 6.734375 3.140625q3.515625 0 5.546875 -1.78125q2.046875 -1.796875 2.375 -5.390625l-7.375 0l0 -5.46875l14.015621 0l0 18.015625l-4.671871 0l-0.75 -3.765625q-1.796875 2.265625 -4.078125 3.421875q-2.28125 1.140625 -5.078125 1.140625q-4.765625 0 -8.53125 -2.1875q-3.75 -2.203125 -5.796875 -6.21875q-2.03125 -4.015625 -2.03125 -8.90625q0 -7.703125 4.484375 -12.640625q4.484375 -4.953125 11.875 -4.953125zm33.83975 9.34375q0.4375 0 0.796875 0.0625q0.375 0.046875 0.6875 0.171875l0 6.140625q-0.5625 -0.109375 -1.109375 -0.15625q-0.53125 -0.0625 -1.25 -0.0625q-3.359375 0 -4.96875 2.046875q-1.59375 2.046875 -1.59375 5.484375l0 11.078125l-6.609375 0l0 -24.125l6.28125 0l0 4.484375l0.09375 0q1.046875 -2.359375 3.125 -3.734375q2.09375 -1.390625 4.546875 -1.390625zm15.448425 0q5.671875 0 9.09375 3.5q3.421875 3.5 3.421875 9.234375q0 5.765625 -3.453125 9.234375q-3.453125 3.453125 -9.0625 3.453125q-5.59375 0 -9.03125 -3.484375q-3.421875 -3.484375 -3.421875 -9.203125q0 -5.71875 3.359375 -9.21875q3.375 -3.515625 9.09375 -3.515625zm-5.828125 12.734375q0 3.8125 1.5625 5.765625q1.5625 1.9375 4.265625 1.9375q2.828125 0 4.34375 -2.015625q1.53125 -2.015625 1.53125 -5.6875q0 -3.59375 -1.484375 -5.671875q-1.46875 -2.078125 -4.4375 -2.078125q-2.65625 0 -4.21875 1.9375q-1.5625 1.921875 -1.5625 5.8125zm34.17137 -12.734375q4.6718826 0 7.8750076 2.421875q3.203125 2.40625 3.46875 6.71875l-6.484375 0q-0.296875 -2.078125 -1.53125 -3.109375q-1.234375 -1.046875 -3.3750076 -1.046875q-2.65625 0 -4.140625 2.1875q-1.484375 2.1875 -1.484375 5.65625q0 3.46875 1.453125 5.546875q1.46875 2.0625 4.03125 2.0625q2.2187576 0 3.5781326 -1.265625q1.375 -1.265625 1.71875 -3.65625l6.375 0q-0.65625 4.78125 -3.734375 7.34375q-3.078125 2.5625 -7.8906326 2.5625q-5.375 0 -8.765625 -3.4375q-3.390625 -3.453125 -3.390625 -8.921875q0 -5.859375 3.328125 -9.453125q3.34375 -3.609375 8.96875 -3.609375zm26.384651 0q5.34375 0 8.546875 3.6875q3.203125 3.671875 3.203125 9.390625l-0.046875 1.234375l-17.40625 0q0.140625 3.125 1.625 4.625q1.5 1.5 4.28125 1.5q1.796875 0 3.3125 -0.921875q1.53125 -0.921875 1.953125 -2.21875l5.828125 0q-1.34375 4.09375 -4.15625 6.109375q-2.796875 2.015625 -7.140625 2.015625q-5.578125 0 -8.953125 -3.53125q-3.375 -3.53125 -3.375 -9.15625q0 -5.390625 3.453125 -9.0625q3.453125 -3.671875 8.875 -3.671875zm-5.703125 10.125l10.78125 0q-0.484375 -2.671875 -1.734375 -3.90625q-1.234375 -1.234375 -3.578125 -1.234375q-2.40625 0 -3.828125 1.375q-1.40625 1.359375 -1.640625 3.765625zm35.40027 -10.125q0.4375 0 0.796875 0.0625q0.375 0.046875 0.6875 0.171875l0 6.140625q-0.5625 -0.109375 -1.109375 -0.15625q-0.53125 -0.0625 -1.25 -0.0625q-3.359375 0 -4.96875 2.046875q-1.59375 2.046875 -1.59375 5.484375l0 11.078125l-6.609375 0l0 -24.125l6.28125 0l0 4.484375l0.09375 0q1.046875 -2.359375 3.125 -3.734375q2.09375 -1.390625 4.546875 -1.390625zm9.097504 0.640625l5.46875 16.515625l0.09375 0l5.25 -16.515625l6.859375 0l-10.25 27.609375q-0.90625 2.421875 -2.796875 3.71875q-1.890625 1.296875 -4.90625 1.296875q-1.421875 0 -2.421875 -0.078125q-0.984375 -0.0625 -2.03125 -0.171875l0 -5.453125q1.203125 0.140625 1.96875 0.1875q0.78125 0.046875 1.484375 0.046875q1.421875 0 2.1875 -0.875q0.78125 -0.859375 0.78125 -2.15625q0 -0.34375 -0.046875 -0.671875q-0.046875 -0.328125 -0.25 -0.828125l-8.5 -22.625l7.109375 0z" fill-rule="nonzero"/><path fill="#ffffff" d="m53.30676 223.72581q4.03125 0 6.796875 2.609375q2.765625 2.59375 2.765625 6.59375q0 3.15625 -1.3125 5.21875q-1.3125 2.0625 -3.96875 3.125l0 0.09375q2.34375 0.609375 3.59375 2.796875q1.25 2.1875 1.375 6.703125q0.078125 4.515625 1.296875 6.1718903l-7.34375 0q-0.640625 -1.6250153 -0.859375 -5.2343903q-0.34375 -4.921875 -1.65625 -6.34375q-1.3125 -1.4375 -4.015625 -1.4375l-7.5 0l0 13.01564l-7.328125 0l0 -33.312515l18.15625 0zm-2.65625 15.0625q2.3125 0 3.59375 -1.109375q1.28125 -1.125 1.28125 -3.65625q0 -2.359375 -1.234375 -3.46875q-1.234375 -1.125 -3.640625 -1.125l-8.171875 0l0 9.359375l8.171875 0zm24.11552 -5.875l0 13.828125q0 2.734375 0.953125 4.234375q0.953125 1.484375 3.296875 1.484375q2.734375 0 3.921875 -1.640625q1.203125 -1.65625 1.203125 -5.03125l0 -12.875l6.640625 0l0 24.125015l-6.3125 0l0 -3.3437653l-0.140625 0q-1.25 2.0 -3.234375 3.0000153q-1.984375 1.0 -4.171875 1.0q-4.484375 0 -6.625 -2.2812653q-2.140625 -2.296875 -2.140625 -7.390625l0 -15.109375l6.609375 0zm34.875336 -0.640625q4.625 0 6.703125 2.34375q2.09375 2.328125 2.09375 7.34375l0 15.07814l-6.640625 0l0 -13.82814q0 -2.828125 -0.96875 -4.265625q-0.96875 -1.453125 -3.265625 -1.453125q-2.75 0 -3.953125 1.640625q-1.1875 1.640625 -1.1875 5.03125l0 12.875015l-6.609375 0l0 -24.125015l6.28125 0l0 3.375l0.140625 0q1.203125 -1.9375 3.140625 -2.96875q1.9375 -1.046875 4.265625 -1.046875z" fill-rule="nonzero"/></g></svg>