<svg version="1.1" viewBox="0.0 0.0 275.9133858267717 298.5826771653543" fill="none" stroke="none" stroke-linecap="square" stroke-miterlimit="10" xmlns:xlink="http://www.w3.org/1999/xlink" xmlns="http://www.w3.org/2000/svg"><clipPath id="p.0"><path d="m0 0l275.9134 0l0 298.58267l-275.9134 0l0 -298.58267z" clip-rule="nonzero"/></clipPath><g clip-path="url(#p.0)"><path fill="#000000" fill-opacity="0.0" d="m0 0l275.9134 0l0 298.58267l-275.9134 0z" fill-rule="evenodd"/><path fill="#000000" fill-opacity="0.0" d="m0.4566929 55.04987c0 59.94488 2.96063 89.91733 5.92126 119.88977c2.9606304 29.972443 5.92126 59.944885 5.92126 119.88977" fill-rule="evenodd"/><path stroke="#ffffff" stroke-width="4.0" stroke-linejoin="round" stroke-linecap="butt" d="m0.4566929 55.04987c0 59.94488 2.96063 89.91733 5.92126 119.88977c2.9606304 29.972443 5.92126 59.944885 5.92126 119.88977" fill-rule="evenodd"/><path fill="#000000" fill-opacity="0.0" d="m273.41733 49.648293c0 60.70079 -3.7480469 91.051186 -7.496063 121.40157c-3.7480469 30.350403 -7.496063 60.70079 -7.496063 121.40158" fill-rule="evenodd"/><path stroke="#ffffff" stroke-width="4.0" stroke-linejoin="round" stroke-linecap="butt" d="m273.41733 49.648293c0 60.70079 -3.7480469 91.051186 -7.496063 121.40157c-3.7480469 30.350403 -7.496063 60.70079 -7.496063 121.40158" fill-rule="evenodd"/><path fill="#000000" fill-opacity="0.0" d="m0 56.716534c20.551182 0 30.82677 6.3779564 41.102364 12.755909c10.275589 6.3779526 20.551178 12.755905 41.102364 12.755905" fill-rule="evenodd"/><path stroke="#ffffff" stroke-width="4.0" stroke-linejoin="round" stroke-linecap="butt" d="m0 56.716534c20.551182 0 30.82677 6.3779564 41.102364 12.755909c10.275589 6.3779526 20.551178 12.755905 41.102364 12.755905" fill-rule="evenodd"/><path fill="#000000" fill-opacity="0.0" d="m82.20473 82.22835c15.354324 0 23.031494 -6.1417313 30.708656 -12.283463c7.67717 -6.141735 15.354332 -12.283466 30.708656 -12.283466" fill-rule="evenodd"/><path stroke="#ffffff" stroke-width="4.0" stroke-linejoin="round" stroke-linecap="butt" d="m82.20473 82.22835c15.354324 0 23.031494 -6.1417313 30.708656 -12.283463c7.67717 -6.141735 15.354332 -12.283466 30.708656 -12.283466" fill-rule="evenodd"/><path fill="#000000" fill-opacity="0.0" d="m142.04462 57.66142c15.944885 0 23.917328 6.968502 31.88977 13.937008c7.9724426 6.968506 15.944885 13.937004 31.889755 13.937004" fill-rule="evenodd"/><path stroke="#ffffff" stroke-width="4.0" stroke-linejoin="round" stroke-linecap="butt" d="m142.04462 57.66142c15.944885 0 23.917328 6.968502 31.88977 13.937008c7.9724426 6.968506 15.944885 13.937004 31.889755 13.937004" fill-rule="evenodd"/><path fill="#000000" fill-opacity="0.0" d="m205.82414 85.53543c16.65355 0 24.980316 -8.385826 33.3071 -16.771652c8.326767 -8.385826 16.653534 -16.771652 33.307083 -16.771652" fill-rule="evenodd"/><path stroke="#ffffff" stroke-width="4.0" stroke-linejoin="round" stroke-linecap="butt" d="m205.82414 85.53543c16.65355 0 24.980316 -8.385826 33.3071 -16.771652c8.326767 -8.385826 16.653534 -16.771652 33.307083 -16.771652" fill-rule="evenodd"/><path fill="#000000" fill-opacity="0.0" d="m11.110236 293.39633l249.32285 -0.47244263" fill-rule="evenodd"/><path stroke="#ffffff" stroke-width="4.0" stroke-linejoin="round" stroke-linecap="butt" d="m11.110236 293.39633l249.32285 -0.47244263" fill-rule="evenodd"/><path fill="#000000" fill-opacity="0.0" d="m22.693014 59.0778c-3.529808 -10.589424 0.5190315 -25.428646 9.448816 -32.125984c4.5979958 -3.448494 11.555325 1.0171299 17.007877 2.8346462c6.8788414 2.2929497 14.999958 -3.6378136 21.73228 -0.94488144c15.834679 6.33387 11.406517 35.76964 3.7795258 51.023624" fill-rule="evenodd"/><path stroke="#ffffff" stroke-width="4.0" stroke-linejoin="round" stroke-linecap="butt" d="m22.693014 59.0778c-3.529808 -10.589424 0.5190315 -25.428646 9.448816 -32.125984c4.5979958 -3.448494 11.555325 1.0171299 17.007877 2.8346462c6.8788414 2.2929497 14.999958 -3.6378136 21.73228 -0.94488144c15.834679 6.33387 11.406517 35.76964 3.7795258 51.023624" fill-rule="evenodd"/><path fill="#000000" fill-opacity="0.0" d="m54.818348 29.787401c1.2805138 -5.1220627 0.5552902 -15.11811 -4.724411 -15.11811c-4.5858955 0 3.7795296 8.642449 3.7795296 13.228347" fill-rule="evenodd"/><path stroke="#ffffff" stroke-width="4.0" stroke-linejoin="round" stroke-linecap="butt" d="m54.818348 29.787401c1.2805138 -5.1220627 0.5552902 -15.11811 -4.724411 -15.11811c-4.5858955 0 3.7795296 8.642449 3.7795296 13.228347" fill-rule="evenodd"/><path fill="#000000" fill-opacity="0.0" d="m185.2126 80.81095c4.26326 -29.842884 12.014343 -74.40287 41.5748 -80.314964c19.845505 -3.9691 30.783218 38.591034 21.732285 56.692913" fill-rule="evenodd"/><path stroke="#ffffff" stroke-width="4.0" stroke-linejoin="round" stroke-linecap="butt" d="m185.2126 80.81095c4.26326 -29.842884 12.014343 -74.40287 41.5748 -80.314964c19.845505 -3.9691 30.783218 38.591034 21.732285 56.692913" fill-rule="evenodd"/><path fill="#000000" fill-opacity="0.0" d="m208.83464 36.401573c3.1274872 -9.382442 20.445496 -0.30148315 29.291351 -4.724407" fill-rule="evenodd"/><path stroke="#ffffff" stroke-width="4.0" stroke-linejoin="round" stroke-linecap="butt" d="m208.83464 36.401573c3.1274872 -9.382442 20.445496 -0.30148315 29.291351 -4.724407" fill-rule="evenodd"/><path fill="#000000" fill-opacity="0.0" d="m205.05511 62.85827c8.895065 -4.447529 20.396286 -1.2217636 29.291336 -5.6692924" fill-rule="evenodd"/><path stroke="#ffffff" stroke-width="4.0" stroke-linejoin="round" stroke-linecap="butt" d="m205.05511 62.85827c8.895065 -4.447529 20.396286 -1.2217636 29.291336 -5.6692924" fill-rule="evenodd"/><path fill="#000000" fill-opacity="0.0" d="m171.97638 70.41732l0 -33.07086" fill-rule="evenodd"/><path stroke="#ffffff" stroke-width="4.0" stroke-linejoin="round" stroke-linecap="butt" d="m171.97638 70.41732l0 -33.07086" fill-rule="evenodd"/><path fill="#000000" fill-opacity="0.0" d="m171.97638 37.34646l-70.86614 0.4724388" fill-rule="evenodd"/><path stroke="#ffffff" stroke-width="4.0" stroke-linejoin="round" stroke-linecap="butt" d="m171.97638 37.34646l-70.86614 0.4724388" fill-rule="evenodd"/><path fill="#000000" fill-opacity="0.0" d="m100.637794 37.818897l-0.724411 40.157482" fill-rule="evenodd"/><path stroke="#ffffff" stroke-width="4.0" stroke-linejoin="round" stroke-linecap="butt" d="m100.637794 37.818897l-0.724411 40.157482" fill-rule="evenodd"/><path fill="#000000" fill-opacity="0.0" d="m101.11024 38.29134l-25.039368 -12.755907" fill-rule="evenodd"/><path stroke="#ffffff" stroke-width="4.0" stroke-linejoin="round" stroke-linecap="butt" d="m101.11024 38.29134l-25.039368 -12.755907" fill-rule="evenodd"/><path fill="#000000" fill-opacity="0.0" d="m76.301834 23.64567l-0.22046661 9.228346" fill-rule="evenodd"/><path stroke="#ffffff" stroke-width="4.0" stroke-linejoin="round" stroke-linecap="butt" d="m76.301834 23.64567l-0.22046661 9.228346" fill-rule="evenodd"/><path fill="#000000" fill-opacity="0.0" d="m100.86877 38.527557l-7.7795258 -21.732283" fill-rule="evenodd"/><path stroke="#ffffff" stroke-width="4.0" stroke-linejoin="round" stroke-linecap="butt" d="m100.86877 38.527557l-7.7795258 -21.732283" fill-rule="evenodd"/><path fill="#000000" fill-opacity="0.0" d="m93.07874 17.503937l-17.732285 8.503937" fill-rule="evenodd"/><path stroke="#ffffff" stroke-width="4.0" stroke-linejoin="round" stroke-linecap="butt" d="m93.07874 17.503937l-17.732285 8.503937" fill-rule="evenodd"/><path fill="#000000" fill-opacity="0.0" d="m172.44357 38.05512l-13.228348 -21.984253" fill-rule="evenodd"/><path stroke="#ffffff" stroke-width="4.0" stroke-linejoin="round" stroke-linecap="butt" d="m172.44357 38.05512l-13.228348 -21.984253" fill-rule="evenodd"/><path fill="#000000" fill-opacity="0.0" d="m159.22047 16.086615l-66.14173 0.94488144" fill-rule="evenodd"/><path stroke="#ffffff" stroke-width="4.0" stroke-linejoin="round" stroke-linecap="butt" d="m159.22047 16.086615l-66.14173 0.94488144" fill-rule="evenodd"/><path fill="#000000" fill-opacity="0.0" d="m93.07874 17.031496l0.22046661 -10.866142" fill-rule="evenodd"/><path stroke="#ffffff" stroke-width="4.0" stroke-linejoin="round" stroke-linecap="butt" d="m93.07874 17.031496l0.22046661 -10.866142" fill-rule="evenodd"/><path fill="#000000" fill-opacity="0.0" d="m92.71654 7.5826774l66.866135 -0.7244096" fill-rule="evenodd"/><path stroke="#ffffff" stroke-width="4.0" stroke-linejoin="round" stroke-linecap="butt" d="m92.71654 7.5826774l66.866135 -0.7244096" fill-rule="evenodd"/><path fill="#000000" fill-opacity="0.0" d="m159.21523 5.4566927l0.03149414 10.677165" fill-rule="evenodd"/><path stroke="#ffffff" stroke-width="4.0" stroke-linejoin="round" stroke-linecap="butt" d="m159.21523 5.4566927l0.03149414 10.677165" fill-rule="evenodd"/><path fill="#000000" fill-opacity="0.0" d="m125.37008 27.188976l0 0c0 -2.4178772 3.5958176 -4.3779526 8.031502 -4.3779526l0 0c4.435669 0 8.031494 1.9600754 8.031494 4.3779526l0 0c0 2.4178772 -3.5958252 4.3779526 -8.031494 4.3779526l0 0c-4.435684 0 -8.031502 -1.9600754 -8.031502 -4.3779526z" fill-rule="evenodd"/><path stroke="#ffffff" stroke-width="4.0" stroke-linejoin="round" stroke-linecap="butt" d="m125.37008 27.188976l0 0c0 -2.4178772 3.5958176 -4.3779526 8.031502 -4.3779526l0 0c4.435669 0 8.031494 1.9600754 8.031494 4.3779526l0 0c0 2.4178772 -3.5958252 4.3779526 -8.031494 4.3779526l0 0c-4.435684 0 -8.031502 -1.9600754 -8.031502 -4.3779526z" fill-rule="evenodd"/><path fill="#000000" fill-opacity="0.0" d="m248.74278 56.952755c-0.35432434 0.94488144 -0.35432434 0.94488144 -0.70866394 1.8897629" fill-rule="evenodd"/><path stroke="#ffffff" stroke-width="4.0" stroke-linejoin="round" stroke-linecap="butt" d="m248.74278 56.952755c-0.35432434 0.94488144 -0.35432434 0.94488144 -0.70866394 1.8897629" fill-rule="evenodd"/><path fill="#000000" fill-opacity="0.0" d="m248.50656 57.425198c-0.23622131 1.0629921 -0.23622131 1.0629921 -0.47244263 2.1259842" fill-rule="evenodd"/><path stroke="#ffffff" stroke-width="4.0" stroke-linejoin="round" stroke-linecap="butt" d="m248.50656 57.425198c-0.23622131 1.0629921 -0.23622131 1.0629921 -0.47244263 2.1259842" fill-rule="evenodd"/><path fill="#000000" fill-opacity="0.0" d="m74.64828 77.97638c-0.24146271 1.3385849 -0.48292542 2.6771622 -0.72439575 4.015747" fill-rule="evenodd"/><path stroke="#ffffff" stroke-width="4.0" stroke-linejoin="round" stroke-linecap="butt" d="m74.64828 77.97638c-0.24146271 1.3385849 -0.48292542 2.6771622 -0.72439575 4.015747" fill-rule="evenodd"/><path fill="#000000" fill-opacity="0.0" d="m20.795275 168.68504l272.12598 0l0 104.220474l-272.12598 0z" fill-rule="evenodd"/><path fill="#ffffff" d="m47.9359 177.17566q5.421875 0 9.421875 3.140625q4.015625 3.125 4.625 8.625l-6.984375 0q-0.71875 -2.8125 -2.5625 -4.203125q-1.84375 -1.40625 -4.484375 -1.40625q-4.34375 0 -6.703125 3.15625q-2.359375 3.15625 -2.359375 8.28125q0 4.84375 2.328125 8.0q2.34375 3.140625 6.734375 3.140625q3.515625 0 5.546875 -1.78125q2.046875 -1.796875 2.375 -5.390625l-7.375 0l0 -5.46875l14.015625 0l0 18.015625l-4.671875 0l-0.75 -3.765625q-1.796875 2.265625 -4.078125 3.421875q-2.28125 1.140625 -5.078125 1.140625q-4.765625 0 -8.53125 -2.1875q-3.75 -2.203125 -5.796875 -6.21875q-2.031252 -4.015625 -2.031252 -8.90625q0 -7.703125 4.484377 -12.640625q4.484375 -4.953125 11.875 -4.953125zm33.83975 9.34375q0.4375 0 0.796875 0.0625q0.375 0.046875 0.6875 0.171875l0 6.140625q-0.5625 -0.109375 -1.109375 -0.15625q-0.53125 -0.0625 -1.25 -0.0625q-3.359375 0 -4.96875 2.046875q-1.59375 2.046875 -1.59375 5.484375l0 11.078125l-6.609375 0l0 -24.125l6.28125 0l0 4.484375l0.09375 0q1.046875 -2.359375 3.125 -3.734375q2.09375 -1.390625 4.546875 -1.390625zm15.448425 0q5.671875 0 9.09375 3.5q3.421875 3.5 3.421875 9.234375q0 5.765625 -3.453125 9.234375q-3.453125 3.453125 -9.0625 3.453125q-5.59375 0 -9.03125 -3.484375q-3.421875 -3.484375 -3.421875 -9.203125q0 -5.71875 3.359375 -9.21875q3.375 -3.515625 9.09375 -3.515625zm-5.828125 12.734375q0 3.8125 1.5625 5.765625q1.5625 1.9375 4.265625 1.9375q2.828125 0 4.34375 -2.015625q1.53125 -2.015625 1.53125 -5.6875q0 -3.59375 -1.484375 -5.671875q-1.46875 -2.078125 -4.4375 -2.078125q-2.65625 0 -4.21875 1.9375q-1.5625 1.921875 -1.5625 5.8125zm34.17137 -12.734375q4.671875 0 7.875 2.421875q3.203125 2.40625 3.46875 6.71875l-6.484375 0q-0.296875 -2.078125 -1.53125 -3.109375q-1.234375 -1.046875 -3.375 -1.046875q-2.65625 0 -4.140625 2.1875q-1.484375 2.1875 -1.484375 5.65625q0 3.46875 1.453125 5.546875q1.46875 2.0625 4.03125 2.0625q2.21875 0 3.578125 -1.265625q1.375 -1.265625 1.71875 -3.65625l6.375 0q-0.65625 4.78125 -3.734375 7.34375q-3.078125 2.5625 -7.890625 2.5625q-5.375 0 -8.765625 -3.4375q-3.390625 -3.453125 -3.390625 -8.921875q0 -5.859375 3.328125 -9.453125q3.34375 -3.609375 8.96875 -3.609375zm26.384644 0q5.34375 0 8.546875 3.6875q3.203125 3.671875 3.203125 9.390625l-0.046875 1.234375l-17.40625 0q0.140625 3.125 1.625 4.625q1.5 1.5 4.28125 1.5q1.796875 0 3.3125 -0.921875q1.53125 -0.921875 1.953125 -2.21875l5.828125 0q-1.34375 4.09375 -4.15625 6.109375q-2.796875 2.015625 -7.140625 2.015625q-5.578125 0 -8.953125 -3.53125q-3.375 -3.53125 -3.375 -9.15625q0 -5.390625 3.453125 -9.0625q3.453125 -3.671875 8.875 -3.671875zm-5.703125 10.125l10.78125 0q-0.484375 -2.671875 -1.734375 -3.90625q-1.234375 -1.234375 -3.578125 -1.234375q-2.40625 0 -3.828125 1.375q-1.40625 1.359375 -1.640625 3.765625zm35.40027 -10.125q0.4375 0 0.796875 0.0625q0.375 0.046875 0.6875 0.171875l0 6.140625q-0.5625 -0.109375 -1.109375 -0.15625q-0.53125 -0.0625 -1.25 -0.0625q-3.359375 0 -4.96875 2.046875q-1.59375 2.046875 -1.59375 5.484375l0 11.078125l-6.609375 0l0 -24.125l6.28125 0l0 4.484375l0.09375 0q1.046875 -2.359375 3.125 -3.734375q2.09375 -1.390625 4.546875 -1.390625zm9.097504 0.640625l5.46875 16.515625l0.09375 0l5.25 -16.515625l6.859375 0l-10.25 27.609375q-0.90625 2.421875 -2.796875 3.71875q-1.890625 1.296875 -4.90625 1.296875q-1.421875 0 -2.421875 -0.078125q-0.984375 -0.0625 -2.03125 -0.171875l0 -5.453125q1.203125 0.140625 1.96875 0.1875q0.78125 0.046875 1.484375 0.046875q1.421875 0 2.1875 -0.875q0.78125 -0.859375 0.78125 -2.15625q0 -0.34375 -0.046875 -0.671875q-0.046875 -0.328125 -0.25 -0.828125l-8.5 -22.625l7.109375 0z" fill-rule="nonzero"/><path fill="#ffffff" d="m48.9359 219.97253q5.09375 0 7.734375 2.015625q2.65625 2.015625 2.65625 6.21875q0 2.5625 -1.1875 4.25q-1.1875 1.6875 -3.328125 2.71875q3.03125 0.90625 4.5625 3.078125q1.546875 2.15625 1.546875 5.375q0 4.59375 -3.328125 7.125q-3.328125 2.53125 -8.234375 2.53125l-16.34375 0l0 -33.3125l15.921875 0zm-1.046875 13.5q1.953125 0 3.140625 -1.0q1.203125 -1.015625 1.203125 -2.96875q0 -1.96875 -1.234375 -2.890625q-1.21875 -0.9375 -3.609375 -0.9375l-7.046875 0l0 7.796875l7.546875 0zm0.46875 14.109375q2.4375 0 3.828125 -1.0625q1.390625 -1.078125 1.390625 -3.296875q0 -2.359375 -1.3125 -3.5625q-1.3125 -1.203125 -3.78125 -1.203125l-8.140625 0l0 9.125l8.015625 0zm27.881985 -19.0625q5.359375 0 7.96875 1.765625q2.609375 1.75 2.609375 4.9375l0 12.9375q0 1.453125 0.1875 2.921875q0.203125 1.453125 0.65625 2.203125l-6.71875 0q-0.1875 -0.546875 -0.3125 -1.125q-0.125 -0.578125 -0.171875 -1.171875q-1.390625 1.4375 -3.453125 2.203125q-2.0625 0.75 -4.65625 0.75q-3.734375 0 -5.96875 -1.875q-2.234375 -1.875 -2.234375 -5.359375q0 -3.375 2.09375 -5.15625q2.109375 -1.796875 7.640625 -2.40625q3.84375 -0.375 5.078125 -0.953125q1.234375 -0.578125 1.234375 -2.015625q0 -1.609375 -0.953125 -2.421875q-0.9375 -0.8125 -3.3125 -0.8125q-2.046875 0 -3.140625 0.875q-1.09375 0.875 -1.28125 2.765625l-6.625 0q0.265625 -3.953125 3.265625 -6.0q3.0 -2.0625 8.09375 -2.0625zm-5.484375 17.90625q0 1.4375 0.96875 2.265625q0.984375 0.8125 3.109375 0.8125q2.640625 0 4.0 -1.390625q1.359375 -1.390625 1.359375 -4.046875l0 -2.578125q-0.59375 0.46875 -1.5625 0.71875q-0.96875 0.234375 -3.5 0.59375q-2.25 0.296875 -3.3125 1.1875q-1.0625 0.875 -1.0625 2.4375zm30.806519 -17.90625q2.640625 0 4.359375 0.984375q1.734375 0.984375 2.828125 2.875l0.09375 0l0 -3.21875l6.296875 0l0 22.78125q0 4.859375 -3.09375 7.671875q-3.078125 2.8125 -9.375 2.8125q-4.265625 0 -7.3125 -2.046875q-3.046875 -2.03125 -3.34375 -5.703125l6.5625 0q0.453125 1.75 1.71875 2.53125q1.28125 0.796875 3.21875 0.796875q2.546875 0 3.9375 -1.546875q1.390625 -1.53125 1.390625 -4.265625l0 -3.34375l-0.09375 0q-0.96875 1.765625 -2.875 2.75q-1.90625 0.984375 -4.359375 0.984375q-4.875 0 -7.59375 -3.234375q-2.703125 -3.234375 -2.703125 -8.890625q0 -5.09375 2.828125 -8.515625q2.84375 -3.421875 7.515625 -3.421875zm-3.71875 11.84375q0 3.40625 1.390625 5.3125q1.40625 1.90625 3.96875 1.90625q2.609375 0 4.125 -1.90625q1.515625 -1.90625 1.515625 -4.78125q0 -3.53125 -1.4375 -5.453125q-1.421875 -1.9375 -4.234375 -1.9375q-2.453125 0 -3.890625 1.875q-1.4375 1.875 -1.4375 4.984375z" fill-rule="nonzero"/></g></svg>